<svg aria-hidden="true" style="position: absolute; width: 0; height: 0; overflow: hidden;" version="1.1" xmlns="http://www.w3.org/2000/svg" xmlns:xlink="http://www.w3.org/1999/xlink">
<defs>
<symbol id="icon-Burger" viewBox="0 0 32 32">
<path  fill="currentColor" d="M8.333 4.667c-3.667 0-3.667 0.277-3.667 3.667v0.033c0 1.476 0 2.543 0.361 2.993 0.353 0.437 1.403 0.64 3.305 0.64s2.952-0.204 3.305-0.641c0.361-0.449 0.361-1.516 0.361-2.993 0-3.421 0-3.699-3.667-3.699zM8.333 14c-2.248 0-3.935-0.236-4.861-1.387-0.805-0.999-0.805-2.361-0.805-4.247l1-0.033h-1c0-3.827 0.241-5.667 5.667-5.667s5.667 1.84 5.667 5.667c0 1.917 0 3.281-0.805 4.28-0.927 1.151-2.613 1.387-4.861 1.387z"></path>
<path  fill="currentColor" d="M23 4.667c-3.667 0-3.667 0.277-3.667 3.667v0.033c0 1.476 0 2.543 0.361 2.993 0.353 0.437 1.403 0.64 3.305 0.64s2.952-0.204 3.305-0.641c0.361-0.449 0.361-1.516 0.361-2.993 0-3.421 0-3.699-3.667-3.699zM23 14c-2.248 0-3.935-0.236-4.861-1.387-0.805-0.999-0.805-2.361-0.805-4.247l1-0.033h-1c0-3.827 0.241-5.667 5.667-5.667s5.667 1.84 5.667 5.667c0 1.917 0 3.281-0.805 4.28-0.927 1.151-2.613 1.387-4.861 1.387z"></path>
<path  fill="currentColor" d="M8.333 19.333c-3.667 0-3.667 0.277-3.667 3.667v0.033c0 1.476 0 2.543 0.361 2.993 0.353 0.437 1.403 0.64 3.305 0.64s2.952-0.204 3.305-0.641c0.361-0.449 0.361-1.516 0.361-2.993 0-3.421 0-3.699-3.667-3.699zM8.333 28.667c-2.248 0-3.935-0.236-4.861-1.387-0.805-0.999-0.805-2.361-0.805-4.247l1-0.033h-1c0-3.827 0.241-5.667 5.667-5.667s5.667 1.84 5.667 5.667c0 1.917 0 3.281-0.805 4.28-0.927 1.151-2.613 1.387-4.861 1.387z"></path>
<path  fill="currentColor" d="M23 19.333c-3.667 0-3.667 0.277-3.667 3.667v0.033c0 1.476 0 2.543 0.361 2.993 0.353 0.437 1.403 0.64 3.305 0.64s2.952-0.204 3.305-0.641c0.361-0.449 0.361-1.516 0.361-2.993 0-3.421 0-3.699-3.667-3.699zM23 28.667c-2.248 0-3.935-0.236-4.861-1.387-0.805-0.999-0.805-2.361-0.805-4.247l1-0.033h-1c0-3.827 0.241-5.667 5.667-5.667s5.667 1.84 5.667 5.667c0 1.917 0 3.281-0.805 4.28-0.927 1.151-2.613 1.387-4.861 1.387z"></path>
</symbol>
</defs>
</svg>
