<svg aria-hidden="true" style="position: absolute; width: 0; height: 0; overflow: hidden;" version="1.1" xmlns="http://www.w3.org/2000/svg" xmlns:xlink="http://www.w3.org/1999/xlink">
<defs>
<symbol id="icon-Calling" viewBox="0 0 32 32">
<path fill="currentColor" d="M19.141 2.677c-0.297-0.043-0.596 0.045-0.834 0.235-0.244 0.192-0.397 0.469-0.43 0.779-0.070 0.628 0.383 1.195 1.009 1.266 4.322 0.482 7.682 3.849 8.168 8.185 0.065 0.581 0.552 1.019 1.134 1.019 0.044 0 0.086-0.003 0.13-0.008 0.304-0.033 0.575-0.184 0.766-0.424 0.19-0.24 0.276-0.538 0.242-0.843-0.605-5.41-4.792-9.608-10.185-10.209zM19.224 7.32c-0.635-0.117-1.218 0.288-1.339 0.907s0.285 1.224 0.903 1.346c1.859 0.362 3.295 1.801 3.658 3.667v0.001c0.104 0.537 0.576 0.927 1.121 0.927 0.073 0 0.146-0.007 0.22-0.020 0.617-0.124 1.024-0.727 0.903-1.348-0.543-2.786-2.688-4.938-5.467-5.48zM21.333 20.121c0.602-0.347 1.282-0.739 2.139-0.557 0.777 0.164 3.425 2.313 4.15 3.058 0.475 0.488 0.74 0.991 0.781 1.495 0.072 1.976-2.613 4.232-3.102 4.513-0.649 0.468-1.405 0.703-2.253 0.703-0.867 0-1.834-0.247-2.888-0.738-5.72-2.388-14.459-10.954-16.77-16.63-0.959-2.113-0.965-3.856-0.016-5.166 0.378-0.614 2.536-3.182 4.468-3.101 0.514 0.044 1.013 0.308 1.503 0.787 0.741 0.726 2.836 3.382 2.998 4.161 0.179 0.866-0.214 1.555-0.563 2.16-0.074 0.13-0.175 0.284-0.285 0.453-0.417 0.642-0.973 1.496-0.776 2.041 1.409 3.459 4.663 6.477 8.124 7.895 0.535 0.195 1.389-0.365 2.028-0.784 0.167-0.109 0.319-0.209 0.447-0.283l0.014-0.008z"></path>
</symbol>
</defs>
</svg>
