<svg aria-hidden="true" style="position: absolute; width: 0; height: 0; overflow: hidden;" version="1.1" xmlns="http://www.w3.org/2000/svg" xmlns:xlink="http://www.w3.org/1999/xlink">
<defs>
<symbol id="icon-minus" viewBox="0 0 32 32">
<path fill="currentColor" stroke="#fff" style="stroke: var(--color1, #fff)" stroke-linejoin="miter" stroke-linecap="butt" stroke-miterlimit="4" stroke-width="3.2" d="M30.4 16c0 7.953-6.447 14.4-14.4 14.4s-14.4-6.447-14.4-14.4c0-7.953 6.447-14.4 14.4-14.4s14.4 6.447 14.4 14.4z"></path>
</symbol>
<symbol id="icon-plus" viewBox="0 0 32 32">
<path fill="currentColor" d="M5.942 27.506c-5.951-5.954-5.951-15.605 0-21.559s15.599-5.954 21.55 0c5.95 5.952 5.951 15.605 0 21.559s-15.6 5.952-21.55 0zM8.097 25.35c2.286 2.287 5.387 3.572 8.62 3.572s6.334-1.285 8.62-3.572c2.286-2.287 3.57-5.389 3.57-8.624s-1.284-6.337-3.57-8.624c-2.286-2.287-5.387-3.572-8.62-3.572s-6.334 1.285-8.62 3.572-3.571 5.389-3.571 8.624c0 3.234 1.284 6.336 3.571 8.624zM8.205 15.202h6.989v-6.992c-0.018-1.016 0.489-1.524 1.524-1.524s1.542 0.508 1.524 1.524v6.992h6.988c1.015 0 1.523 0.508 1.524 1.524-0.001 1.016-0.509 1.524-1.524 1.524h-6.989v6.992c0.024 1.015-0.485 1.524-1.524 1.524s-1.547-0.509-1.524-1.524v-6.992h-6.989c-1.015 0.002-1.524-0.507-1.524-1.524s0.509-1.526 1.524-1.524z"></path>
</symbol>
</defs>
</svg>
