<svg width="117" height="43" viewBox="0 0 117 43" fill="none" xmlns="http://www.w3.org/2000/svg">
<g filter="url(#filter0_d_201_3247)">
<path d="M27.3745 11.1357C27.1428 10.9105 26.8178 10.8082 26.4997 10.8605C26.1811 10.9127 25.9058 11.1127 25.758 11.3998C25.2496 12.3875 24.6038 13.2952 23.844 14.0975C23.9198 13.5179 23.9579 12.9348 23.9579 12.3502C23.9579 11.2284 23.8076 10.074 23.5109 8.91863C22.5355 5.12375 19.9778 1.91449 16.4938 0.113763C16.1905 -0.0429603 15.829 -0.0374579 15.5306 0.128437C15.2322 0.2944 15.0367 0.598677 15.01 0.939027C14.7383 4.38763 12.962 7.5251 10.1337 9.54901C10.0963 9.57596 10.0591 9.60327 10.022 9.63045C9.94498 9.68676 9.87242 9.74002 9.80464 9.78473C9.79401 9.79181 9.7835 9.79901 9.77318 9.80641C7.99439 11.0799 6.52669 12.7776 5.5285 14.7164C4.51426 16.6885 4 18.8047 4 21.0061C4 22.1275 4.15034 23.282 4.44687 24.4375C6.01173 30.5283 11.4929 34.7822 17.7762 34.7822C25.372 34.7822 31.5515 28.6022 31.5515 21.0061C31.5515 17.2602 30.0681 13.7548 27.3745 11.1357Z" fill="#011632"/>
</g>
<path d="M17.2487 25.2953C19.5772 25.2953 21.4648 23.4078 21.4648 21.0793C21.4648 18.7509 19.5772 16.8633 17.2487 16.8633C14.9203 16.8633 13.0327 18.7509 13.0327 21.0793C13.0327 23.4078 14.9203 25.2953 17.2487 25.2953Z" fill="white"/>
<path d="M111.906 15.1607V12.5663H111.102V11.9922H113.357V12.5663H112.565V15.1607H111.906ZM113.683 15.1607V11.9922H114.321L115.507 13.5658H115.21L116.362 11.9922H117V15.1607H116.341V12.7195L116.605 12.779L115.384 14.3526H115.299L114.121 12.779L114.342 12.7195V15.1607H113.683Z" fill="#011632"/>
<path d="M48.1228 28.8252C49.1846 28.8252 50.1234 28.6313 50.9402 28.2434C51.7567 27.8351 52.3794 27.2227 52.808 26.4061V28.4577H57.0953V11.7383H52.5018V21.5066C52.5018 22.4661 52.2161 23.2418 51.6446 23.8339C51.0727 24.4055 50.3379 24.6913 49.4399 24.6913C48.5414 24.6913 47.8067 24.4055 47.2348 23.8339C46.6633 23.2418 46.3775 22.4661 46.3775 21.5066V11.7383H41.7844V21.8741C41.7844 23.9564 42.3251 25.6406 43.4072 26.9266C44.5098 28.1924 46.0814 28.8252 48.1228 28.8252Z" fill="#011632"/>
<path d="M60.4524 10.2378H65.0455V5.64453H60.4524V10.2378ZM60.4524 28.4577H65.0455V11.7382H60.4524V28.4577Z" fill="#011632"/>
<path d="M70.428 28.458H75.0211V15.7194H78.6037V11.7385H75.0211V11.4936C75.0211 10.0033 75.8888 9.25815 77.624 9.25815C77.9098 9.25815 78.2467 9.2888 78.6345 9.35004V5.43046C78.1651 5.32837 77.624 5.27734 77.0113 5.27734C74.9291 5.27734 73.3063 5.81834 72.1425 6.90028C70.9995 7.98227 70.428 9.51336 70.428 11.4936V11.7385H67.6106V15.7194H70.428V28.458Z" fill="#011632"/>
<path d="M80.9663 28.4579H85.5598V19.4551C85.5598 18.2098 85.9068 17.2504 86.6007 16.5767C87.2951 15.8825 88.2035 15.5355 89.3261 15.5355H90.7652V11.5547H89.7855C88.7646 11.5547 87.8562 11.7486 87.0602 12.1365C86.2846 12.504 85.6823 13.2083 85.2537 14.2494V11.7384H80.9663V28.4579Z" fill="#011632"/>
<path d="M95.3815 35.2558C98.4434 35.2558 100.659 33.5103 102.026 30.0195L109.192 11.7383H104.262L100.312 22.4865L96.3612 11.7383H91.4311L98.0148 28.4577L97.7086 29.1621C97.4637 29.7133 97.1472 30.2032 96.7594 30.6319C96.3716 31.0606 95.7285 31.275 94.83 31.275C94.0952 31.275 93.4013 31.1729 92.7478 30.9687V34.7352C93.0951 34.9189 93.4929 35.0516 93.9423 35.1333C94.4118 35.2149 94.8916 35.2558 95.3815 35.2558Z" fill="#011632"/>
<defs>
<filter id="filter0_d_201_3247" x="0" y="0" width="35.5515" height="42.7822" filterUnits="userSpaceOnUse" color-interpolation-filters="sRGB">
<feFlood flood-opacity="0" result="BackgroundImageFix"/>
<feColorMatrix in="SourceAlpha" type="matrix" values="0 0 0 0 0 0 0 0 0 0 0 0 0 0 0 0 0 0 127 0" result="hardAlpha"/>
<feOffset dy="4"/>
<feGaussianBlur stdDeviation="2"/>
<feComposite in2="hardAlpha" operator="out"/>
<feColorMatrix type="matrix" values="0 0 0 0 0 0 0 0 0 0 0 0 0 0 0 0 0 0 0.25 0"/>
<feBlend mode="normal" in2="BackgroundImageFix" result="effect1_dropShadow_201_3247"/>
<feBlend mode="normal" in="SourceGraphic" in2="effect1_dropShadow_201_3247" result="shape"/>
</filter>
</defs>
</svg>
