<!-- Generated by IcoMoon.io -->
<svg version="1.1" xmlns="http://www.w3.org/2000/svg" width="32" height="32" viewBox="0 0 32 32">
<path fill="#fff" d="M26.64 3.278c-0.119-0.23-0.403-0.319-0.632-0.2s-0.319 0.402-0.2 0.632c0.612 1.177 0.74 2.53 0.362 3.81-0.151 0.511-1.476 5-1.534 5.223-0.011 0.044-0.051 0.076-0.096 0.076h-11.062c-0.259 0-0.469 0.21-0.469 0.469s0.21 0.469 0.469 0.469h9.64l-0.261 1.432c-0.009 0.047-0.050 0.082-0.098 0.082h-13.506c-0.048 0-0.089-0.034-0.098-0.082l-0.261-1.432h2.542c0.259 0 0.469-0.21 0.469-0.469s-0.21-0.469-0.469-0.469h-3.965c-0.045 0-0.085-0.031-0.096-0.075-0.001-0.005-0.003-0.010-0.004-0.015l-1.53-5.209c-0.463-1.566-0.168-3.215 0.809-4.524s2.475-2.059 4.108-2.059c0.486 0 0.967 0.068 1.429 0.202 2.498 0.723 5.139 0.723 7.636 0 0.462-0.134 0.943-0.202 1.429-0.202 1.257 0 2.462 0.456 3.396 1.284 0.194 0.172 0.49 0.154 0.662-0.039s0.154-0.49-0.040-0.662c-1.105-0.98-2.532-1.52-4.018-1.52-0.574 0-1.143 0.080-1.69 0.239-2.327 0.674-4.788 0.674-7.115 0-0.547-0.158-1.115-0.239-1.69-0.239-1.932 0-3.703 0.888-4.859 2.435s-1.505 3.498-0.957 5.35l1.528 5.202c0.121 0.454 0.532 0.77 1.002 0.77h0.469l0.291 1.6c0.090 0.493 0.519 0.851 1.020 0.851h2.043l0.331 2.852-0.33 0.088c-0.342 0.092-0.627 0.311-0.804 0.617s-0.224 0.663-0.132 1.005c0.158 0.591 0.695 0.982 1.28 0.982 0.098 0 0.197-0.012 0.296-0.034l0.168 1.45-0.447 0.12c-0.705 0.189-1.125 0.916-0.937 1.622 0.158 0.591 0.695 0.982 1.28 0.982 0.113 0 0.228-0.015 0.343-0.045l0.070-0.019 0.168 1.449-0.383 0.103c-0.342 0.092-0.627 0.311-0.804 0.617s-0.224 0.663-0.132 1.005c0.091 0.342 0.311 0.627 0.617 0.804 0.204 0.118 0.43 0.178 0.66 0.178 0.115 0 0.231-0.015 0.345-0.046l0.006-0.002 0.128 1.099c0.064 0.551 0.53 0.966 1.084 0.966h3.807c0.554 0 1.020-0.415 1.084-0.966l0.328-2.822 0.491-0.132c0.705-0.189 1.125-0.917 0.936-1.622-0.143-0.534-0.594-0.904-1.111-0.97l0.192-1.648 0.525-0.141c0.705-0.189 1.125-0.917 0.936-1.622-0.146-0.545-0.613-0.919-1.143-0.974l0.19-1.635 0.378-0.101c0.706-0.189 1.125-0.917 0.937-1.622-0.133-0.496-0.533-0.851-1.004-0.952l0.068-0.584h2.042c0.501 0 0.93-0.358 1.020-0.851l0.291-1.6h0.469c0.472 0 0.885-0.32 1.004-0.778 0.041-0.159 0.935-3.193 1.526-5.193 0.447-1.513 0.295-3.114-0.429-4.508zM18.062 30.926c-0.009 0.078-0.075 0.136-0.153 0.136h-3.807c-0.078 0-0.144-0.059-0.153-0.136l-0.144-1.236 4.542-1.217-0.285 2.453zM19.843 26.701c0.055 0.206-0.067 0.418-0.273 0.474l-6.929 1.856c-0.1 0.027-0.204 0.013-0.293-0.039s-0.154-0.135-0.18-0.235c-0.027-0.1-0.013-0.204 0.039-0.293s0.135-0.154 0.235-0.18l6.929-1.856c0.033-0.009 0.067-0.013 0.1-0.013 0.171-0 0.327 0.114 0.374 0.287zM18.675 25.643l-5.18 1.388-0.168-1.449 5.527-1.481-0.179 1.542zM20.385 22.32c0.055 0.206-0.068 0.419-0.274 0.474l-8.012 2.147c-0.206 0.055-0.419-0.067-0.474-0.273s0.068-0.418 0.274-0.474l8.012-2.147c0.033-0.009 0.067-0.013 0.1-0.013 0.171 0 0.328 0.114 0.374 0.287zM20.746 17.987c0.055 0.206-0.068 0.419-0.274 0.474l-2.864 0.768c-0.25 0.067-0.398 0.324-0.331 0.574s0.324 0.398 0.574 0.332l1.512-0.405-0.179 1.542-6.165 1.652-0.168-1.449 3.027-0.811c0.25-0.067 0.398-0.324 0.332-0.574s-0.324-0.398-0.574-0.332l-3.896 1.044c-0.206 0.055-0.418-0.068-0.474-0.274-0.027-0.1-0.013-0.204 0.039-0.293s0.135-0.154 0.235-0.18l8.734-2.34c0.206-0.055 0.419 0.068 0.474 0.273zM19.691 16.898l-7.15 1.916-0.303-2.606h7.533l-0.080 0.69z"></path>
<path fill="#fff" d="M19.562 2.739c-2.327 0.674-4.788 0.674-7.115 0-0.249-0.072-0.509 0.071-0.581 0.32s0.071 0.509 0.32 0.581c1.249 0.362 2.533 0.543 3.818 0.543s2.569-0.181 3.818-0.543c0.249-0.072 0.392-0.332 0.32-0.581s-0.332-0.392-0.581-0.32z"></path>
</svg>
