<!-- Generated by IcoMoon.io -->
<svg version="1.1" xmlns="http://www.w3.org/2000/svg" width="32" height="32" viewBox="0 0 32 32">
<path fill="none" stroke="#fff" stroke-linejoin="round" stroke-linecap="round" stroke-miterlimit="10" stroke-width="1" d="M4.046 12.786c1.466 2.798 3.704 4.536 5.85 5.613 3.43 1.722 7.122 1.939 10.61 0.654l0.063-0.023"></path>
<path fill="none" stroke="#fff" stroke-linejoin="round" stroke-linecap="round" stroke-miterlimit="10" stroke-width="1" d="M22.539 18.121c1.974-1.091 3.972-2.763 5.318-5.324"></path>
<path fill="none" stroke="#fff" stroke-linejoin="round" stroke-linecap="round" stroke-miterlimit="10" stroke-width="1" d="M0.462 12.344c0.536 0.644 1.075 1.283 1.616 1.92 2.714 3.2 5.353 6.347 8.89 8.255 3.397 1.832 6.659 1.837 10.065-0 3.536-1.908 6.176-5.055 8.889-8.255 0.541-0.638 1.080-1.277 1.616-1.92"></path>
<path fill="none" stroke="#fff" stroke-linejoin="round" stroke-linecap="round" stroke-miterlimit="10" stroke-width="1" d="M12.945 13.423v2.079c0 0.33 0.267 0.597 0.597 0.597h1.848c0.33 0 0.597-0.267 0.597-0.597v-2.018"></path>
<path fill="none" stroke="#fff" stroke-linejoin="round" stroke-linecap="round" stroke-miterlimit="10" stroke-width="1" d="M15.992 13.484v2.018c0 0.33 0.267 0.597 0.597 0.597h1.848c0.33 0 0.597-0.267 0.597-0.597v-2.079"></path>
<path fill="none" stroke="#fff" stroke-linejoin="round" stroke-linecap="round" stroke-miterlimit="10" stroke-width="1" d="M19.055 13.423v2.161c0 0.284 0.23 0.515 0.515 0.515h1.593c0.284 0 0.515-0.23 0.515-0.515v-2.282"></path>
<path fill="none" stroke="#fff" stroke-linejoin="round" stroke-linecap="round" stroke-miterlimit="10" stroke-width="1" d="M21.677 13.303v1.407c0 0.269 0.218 0.487 0.487 0.487h1.507c0.269 0 0.487-0.218 0.487-0.487v-1.574"></path>
<path fill="none" stroke="#fff" stroke-linejoin="round" stroke-linecap="round" stroke-miterlimit="10" stroke-width="1" d="M12.945 13.423v2.161c0 0.284-0.23 0.515-0.515 0.515h-1.593c-0.284 0-0.515-0.23-0.515-0.515v-2.282"></path>
<path fill="none" stroke="#fff" stroke-linejoin="round" stroke-linecap="round" stroke-miterlimit="10" stroke-width="1" d="M10.323 13.303v1.407c0 0.269-0.218 0.487-0.487 0.487h-1.507c-0.269 0-0.487-0.218-0.487-0.487v-1.574"></path>
<path fill="none" stroke="#fff" stroke-linejoin="round" stroke-linecap="round" stroke-miterlimit="10" stroke-width="1" d="M10.295 7.422c1.945-0.71 3.932-0.838 5.705 0.705 3.463-3.014 7.74 0.347 10.929 1.969 1.523 0.775 3.073 1.491 4.603 2.252 0 0-7.372 1.099-15.525 1.137v0c-0.002 0-0.004-0-0.006-0s-0.004 0-0.007 0v-0c-8.153-0.038-15.525-1.137-15.525-1.137 1.53-0.76 3.079-1.476 4.603-2.252 0.974-0.496 2.049-1.153 3.172-1.742l0.095-0.050"></path>
<path fill="none" stroke="#fff" stroke-linejoin="round" stroke-linecap="round" stroke-miterlimit="10" stroke-width="1" d="M26.24 22.696c-0.203 0.43-0.79 1.48-1.825 1.837-0.080 0.028-0.080 0.142 0 0.169 1.035 0.357 1.622 1.407 1.825 1.837 0.032 0.069 0.13 0.069 0.163 0 0.203-0.43 0.79-1.48 1.825-1.837 0.080-0.028 0.080-0.142 0-0.169-1.035-0.357-1.622-1.407-1.825-1.837-0.032-0.069-0.13-0.069-0.163 0z"></path>
<path fill="none" stroke="#fff" stroke-linejoin="round" stroke-linecap="round" stroke-miterlimit="10" stroke-width="1" d="M6.308 1.178c-0.279 0.592-1.088 2.038-2.513 2.53-0.111 0.038-0.111 0.195 0 0.233 1.425 0.492 2.234 1.938 2.513 2.53 0.045 0.095 0.18 0.095 0.224 0 0.279-0.592 1.088-2.038 2.513-2.53 0.11-0.038 0.11-0.195 0-0.233-1.425-0.492-2.234-1.938-2.513-2.53-0.045-0.095-0.18-0.095-0.224 0z"></path>
<path fill="none" stroke="#fff" stroke-linejoin="round" stroke-linecap="round" stroke-miterlimit="10" stroke-width="1" d="M21.627 25.527c-0.279 0.592-1.088 2.038-2.513 2.53-0.111 0.038-0.111 0.195 0 0.233 1.425 0.492 2.234 1.938 2.513 2.53 0.045 0.095 0.18 0.095 0.224 0 0.279-0.592 1.088-2.038 2.513-2.53 0.11-0.038 0.11-0.195 0-0.233-1.425-0.492-2.234-1.938-2.513-2.53-0.045-0.095-0.18-0.095-0.224 0z"></path>
</svg>
