<svg aria-hidden="true" style="position: absolute; width: 0; height: 0; overflow: hidden;" version="1.1" xmlns="http://www.w3.org/2000/svg" xmlns:xlink="http://www.w3.org/1999/xlink">
<defs>
<symbol id="icon-Arrow-Left" viewBox="0 0 60 32">
<path fill="currentColor" d="M59.363 15.886c0 0.88-0.991 1.608-2.278 1.723l-0.358 0.016h-52.701c-1.455 0-2.635-0.779-2.635-1.739 0-0.881 0.991-1.608 2.277-1.723l0.358-0.016h52.701c1.455 0 2.635 0.779 2.635 1.739z"></path>
<path fill="currentCOlor" d="M17.227 28.68c0.681 0.678 0.683 1.779 0.005 2.459-0.616 0.619-1.582 0.677-2.264 0.173l-0.195-0.168-14.029-13.969c-0.621-0.618-0.677-1.587-0.169-2.269l0.169-0.195 14.029-13.971c0.681-0.678 1.782-0.675 2.46 0.005 0.616 0.619 0.67 1.585 0.164 2.265l-0.169 0.195-12.791 12.739 12.791 12.736z"></path>
</symbol>
<symbol id="icon-Arrow-Right" viewBox="0 0 60 32">
<path fill="currentColor" d="M0.464 16.114c0-0.88 0.991-1.608 2.277-1.723l0.358-0.016h52.701c1.455 0 2.635 0.779 2.635 1.739 0 0.881-0.991 1.608-2.277 1.723l-0.358 0.016h-52.701c-1.455 0-2.635-0.779-2.635-1.739z"></path>
<path fill="currentColor" d="M42.599 3.32c-0.681-0.678-0.683-1.779-0.005-2.459 0.616-0.619 1.582-0.677 2.264-0.173l0.195 0.168 14.029 13.969c0.621 0.618 0.677 1.587 0.169 2.269l-0.169 0.195-14.029 13.971c-0.681 0.678-1.782 0.675-2.46-0.005-0.616-0.619-0.67-1.585-0.164-2.265l0.169-0.195 12.791-12.739-12.791-12.736z"></path>
</symbol>
<symbol id="icon-youtube" viewBox="0 0 32 32">
<path fill="currentColor" d="M18.6 16l-4.2-2.4v4.8l4.2-2.4z"></path>
<path fill="currentColor" d="M0 16c0 8.837 7.163 16 16 16s16-7.163 16-16c0-8.837-7.163-16-16-16s-16 7.163-16 16zM22.2 10.7c0.7 0.2 1.2 0.7 1.4 1.4 0.4 1.3 0.4 3.9 0.4 3.9s0 2.6-0.3 3.9c-0.2 0.7-0.7 1.2-1.4 1.4-1.3 0.3-6.3 0.3-6.3 0.3s-5.1 0-6.3-0.3c-0.7-0.2-1.2-0.7-1.4-1.4-0.3-1.3-0.3-3.9-0.3-3.9s0-2.6 0.2-3.9c0.2-0.7 0.7-1.2 1.4-1.4 1.3-0.3 6.3-0.3 6.3-0.3s5.1 0 6.3 0.3z"></path>
</symbol>
<symbol id="icon-twitter" viewBox="0 0 32 32">
<path fill="currentColor" d="M0 16c0 8.837 7.163 16 16 16s16-7.163 16-16c0-8.837-7.163-16-16-16s-16 7.163-16 16zM22.1 11.5c0.7-0.1 1.3-0.2 1.9-0.5-0.4 0.7-1 1.3-1.7 1.7 0.2 4.7-3.2 9.8-9.3 9.8-1.8 0-3.5-0.6-5-1.5 1.7 0.2 3.5-0.3 4.7-1.2-1.5 0-2.7-1-3.1-2.3 0.5 0.1 1 0 1.5-0.1-1.5-0.4-2.6-1.8-2.6-3.3 0.5 0.2 1 0.4 1.5 0.4-1.4-1-1.9-2.9-1-4.4 1.7 2 4.1 3.3 6.8 3.4-0.5-2 1.1-4 3.2-4 0.9 0 1.8 0.4 2.4 1 0.8-0.2 1.5-0.4 2.1-0.8-0.2 0.8-0.7 1.4-1.4 1.8z"></path>
</symbol>
<symbol id="icon-linkedin" viewBox="0 0 32 32">
<path fill="currentColor" d="M0 16c0-8.837 7.163-16 16-16s16 7.163 16 16c0 8.837-7.163 16-16 16s-16-7.163-16-16zM8.2 13.3v10.7h3.4v-10.7h-3.4zM8 9.9c0 1.1 0.8 1.9 1.9 1.9s1.9-0.8 1.9-1.9c0-1.1-0.8-1.9-1.9-1.9-1 0-1.9 0.8-1.9 1.9zM20.6 24h3.2v-6.6c0-3.3-2-4.4-3.9-4.4-1.7 0-2.9 1.1-3.2 1.8v-1.5h-3.2v10.7h3.4v-5.7c0-1.5 1-2.3 2-2.3s1.7 0.5 1.7 2.2v5.8z"></path>
</symbol>
<symbol id="icon-facebook" viewBox="0 0 32 32">
<path fill="currentColor" d="M0 16c0 8.837 7.163 16 16 16s16-7.163 16-16c0-8.837-7.163-16-16-16s-16 7.163-16 16zM16 8c4.4 0 8 3.6 8 8 0 4-2.9 7.4-6.9 8v-5.7h1.9l0.4-2.3h-2.2v-1.5c0-0.6 0.3-1.2 1.3-1.2h1v-2c0 0-0.9-0.2-1.8-0.2-1.8 0-3 1.1-3 3.1v1.8h-2v2.3h2v5.6c-3.8-0.6-6.7-3.9-6.7-7.9 0-4.4 3.6-8 8-8z"></path>
</symbol>
<symbol id="icon-instagram" viewBox="0 0 32 32">
<path fill="currentColor" d="M23.258 13.004c-0.034-0.773-0.159-1.304-0.338-1.765-0.185-0.489-0.469-0.926-0.841-1.29-0.364-0.369-0.804-0.656-1.287-0.838-0.463-0.179-0.992-0.304-1.764-0.338-0.779-0.037-1.026-0.046-3.001-0.046s-2.222 0.009-2.998 0.043c-0.773 0.034-1.304 0.159-1.764 0.338-0.489 0.185-0.926 0.469-1.29 0.841-0.369 0.364-0.656 0.804-0.838 1.287-0.179 0.463-0.304 0.992-0.338 1.764-0.037 0.779-0.045 1.026-0.045 3.001s0.008 2.222 0.043 2.998c0.034 0.773 0.159 1.304 0.338 1.765 0.185 0.489 0.472 0.926 0.841 1.29 0.364 0.369 0.804 0.656 1.287 0.838 0.463 0.179 0.992 0.304 1.765 0.338 0.776 0.034 1.023 0.043 2.998 0.043s2.222-0.008 2.998-0.043c0.773-0.034 1.304-0.159 1.764-0.338 0.978-0.378 1.75-1.151 2.128-2.128 0.179-0.463 0.304-0.992 0.338-1.765 0.034-0.776 0.043-1.023 0.043-2.998s-0.003-2.222-0.037-2.998zM21.949 18.942c-0.031 0.71-0.151 1.094-0.25 1.35-0.244 0.634-0.747 1.137-1.381 1.381-0.256 0.099-0.642 0.219-1.35 0.25-0.767 0.034-0.997 0.043-2.938 0.043s-2.174-0.008-2.938-0.043c-0.71-0.031-1.094-0.15-1.35-0.25-0.315-0.116-0.602-0.301-0.835-0.543-0.242-0.236-0.426-0.52-0.543-0.835-0.099-0.256-0.219-0.642-0.25-1.35-0.034-0.767-0.043-0.997-0.043-2.938s0.008-2.174 0.043-2.938c0.031-0.71 0.151-1.094 0.25-1.35 0.117-0.315 0.301-0.602 0.546-0.835 0.236-0.242 0.52-0.426 0.835-0.543 0.256-0.099 0.642-0.219 1.35-0.25 0.767-0.034 0.997-0.043 2.938-0.043 1.944 0 2.174 0.008 2.938 0.043 0.71 0.031 1.094 0.151 1.35 0.25 0.315 0.116 0.602 0.301 0.835 0.543 0.241 0.236 0.426 0.52 0.543 0.835 0.099 0.256 0.219 0.642 0.25 1.35 0.034 0.767 0.043 0.997 0.043 2.938s-0.009 2.168-0.043 2.935z"></path>
<path fill="currentColor" d="M16.027 12.265c-2.063 0-3.736 1.674-3.736 3.736s1.674 3.736 3.736 3.736c2.063 0 3.736-1.674 3.736-3.736s-1.674-3.736-3.736-3.736zM16.027 18.425c-1.338 0-2.424-1.085-2.424-2.424s1.086-2.424 2.424-2.424c1.338 0 2.424 1.085 2.424 2.424s-1.085 2.424-2.424 2.424z"></path>
<path fill="currentColor" d="M20.784 12.117c0 0.482-0.391 0.872-0.872 0.872s-0.872-0.391-0.872-0.872c0-0.482 0.391-0.872 0.872-0.872s0.872 0.39 0.872 0.872z"></path>
</symbol>
<symbol id="icon-Star" viewBox="0 0 166 32">
<path fill="#ec942c" style="fill: var(--color1, #ec942c)" d="M16 0l3.592 11.056h11.625l-9.405 6.833 3.592 11.056-9.405-6.833-9.405 6.833 3.592-11.056-9.405-6.833h11.625l3.592-11.056z"></path>
<path fill="#ec942c" style="fill: var(--color1, #ec942c)" d="M49.6 0l3.592 11.056h11.625l-9.405 6.833 3.592 11.056-9.405-6.833-9.405 6.833 3.592-11.056-9.405-6.833h11.625l3.592-11.056z"></path>
<path fill="#ec942c" style="fill: var(--color1, #ec942c)" d="M83.2 0l3.592 11.056h11.625l-9.405 6.833 3.592 11.056-9.405-6.833-9.405 6.833 3.592-11.056-9.405-6.833h11.625l3.592-11.056z"></path>
<path fill="#ec942c" style="fill: var(--color1, #ec942c)" d="M116.8 0l3.592 11.056h11.625l-9.405 6.833 3.592 11.056-9.405-6.833-9.405 6.833 3.592-11.056-9.405-6.833h11.625l3.592-11.056z"></path>
<path fill="#ec942c" style="fill: var(--color1, #ec942c)" d="M150.4 0l3.592 11.056h11.625l-9.405 6.833 3.592 11.056-9.405-6.833-9.405 6.833 3.592-11.056-9.405-6.833h11.625l3.592-11.056z"></path>
</symbol>
<symbol id="icon-Star-one" viewBox="0 0 34 32">
<path fill="#ec942c" style="fill: var(--color1, #ec942c)" d="M16.842 0l3.781 11.638h12.237l-9.9 7.192 3.781 11.638-9.9-7.192-9.9 7.192 3.781-11.638-9.9-7.192h12.236l3.781-11.638z"></path>
</symbol>
</defs>
</svg>
