<svg aria-hidden="true" style="position: absolute; width: 0; height: 0; overflow: hidden;" version="1.1" xmlns="http://www.w3.org/2000/svg" xmlns:xlink="http://www.w3.org/1999/xlink">
<defs>
<symbol id="icon-shield" viewBox="0 0 27 32">
<path fill="#1376f8" style="fill: var(--color1, #1376f8)" d="M13.161 3.41c-1.256 0-9.182 2.791-10.096 3.554-0.27 0.271-0.28 0.742-0.222 3.896 0.027 1.52 0.064 3.585 0.064 6.444 0 7.705 8.477 11.126 10.253 11.756 1.775-0.633 10.256-4.073 10.256-11.756 0-2.862 0.037-4.929 0.065-6.449 0.056-3.151 0.046-3.622-0.24-3.907-0.896-0.748-8.824-3.539-10.080-3.539zM13.161 31.345c-0.108 0-0.216-0.015-0.322-0.047-0.496-0.149-12.156-3.797-12.156-13.993 0-2.84-0.037-4.895-0.064-6.403-0.068-3.767-0.083-4.553 0.89-5.524 1.163-1.166 9.97-4.19 11.65-4.19 1.678 0 10.486 3.024 11.652 4.19 0.972 0.972 0.957 1.757 0.889 5.52-0.027 1.508-0.064 3.563-0.064 6.407 0 10.196-11.659 13.843-12.155 13.993-0.105 0.033-0.213 0.047-0.321 0.047z"></path>
<path fill="#1376f8" style="fill: var(--color1, #1376f8)" d="M12.114 19.736c-0.295 0-0.578-0.117-0.787-0.326l-2.803-2.806c-0.433-0.434-0.433-1.139 0.001-1.572 0.433-0.434 1.138-0.434 1.572 0l2.016 2.019 4.99-4.99c0.434-0.434 1.136-0.434 1.57 0s0.434 1.138 0 1.572l-5.775 5.776c-0.207 0.209-0.49 0.326-0.785 0.326z"></path>
</symbol>
</defs>
</svg>
