<svg aria-hidden="true" style="position: absolute; width: 0; height: 0; overflow: hidden;" version="1.1" xmlns="http://www.w3.org/2000/svg" xmlns:xlink="http://www.w3.org/1999/xlink">
<defs>
<symbol id="icon-implant" viewBox="0 0 32 32">
<path fill="#fff" style="fill: var(--color1, #fff)" d="M26.64 3.278c-0.119-0.23-0.403-0.319-0.632-0.2s-0.319 0.402-0.2 0.632c0.612 1.177 0.74 2.53 0.362 3.81-0.151 0.511-1.476 5-1.534 5.223-0.011 0.044-0.051 0.076-0.096 0.076h-11.062c-0.259 0-0.469 0.21-0.469 0.469s0.21 0.469 0.469 0.469h9.64l-0.261 1.432c-0.009 0.047-0.050 0.082-0.098 0.082h-13.506c-0.048 0-0.089-0.034-0.098-0.082l-0.261-1.432h2.542c0.259 0 0.469-0.21 0.469-0.469s-0.21-0.469-0.469-0.469h-3.965c-0.045 0-0.085-0.031-0.096-0.075-0.001-0.005-0.003-0.010-0.004-0.015l-1.53-5.209c-0.463-1.566-0.168-3.215 0.809-4.524s2.475-2.059 4.108-2.059c0.486 0 0.967 0.068 1.429 0.202 2.498 0.723 5.139 0.723 7.636 0 0.462-0.134 0.943-0.202 1.429-0.202 1.257 0 2.462 0.456 3.396 1.284 0.194 0.172 0.49 0.154 0.662-0.039s0.154-0.49-0.040-0.662c-1.105-0.98-2.532-1.52-4.018-1.52-0.574 0-1.143 0.080-1.69 0.239-2.327 0.674-4.788 0.674-7.115 0-0.547-0.158-1.115-0.239-1.69-0.239-1.932 0-3.703 0.888-4.859 2.435s-1.505 3.498-0.957 5.35l1.528 5.202c0.121 0.454 0.532 0.77 1.002 0.77h0.469l0.291 1.6c0.090 0.493 0.519 0.851 1.020 0.851h2.043l0.331 2.852-0.33 0.088c-0.342 0.092-0.627 0.311-0.804 0.617s-0.224 0.663-0.132 1.005c0.158 0.591 0.695 0.982 1.28 0.982 0.098 0 0.197-0.012 0.296-0.034l0.168 1.45-0.447 0.12c-0.705 0.189-1.125 0.916-0.937 1.622 0.158 0.591 0.695 0.982 1.28 0.982 0.113 0 0.228-0.015 0.343-0.045l0.070-0.019 0.168 1.449-0.383 0.103c-0.342 0.092-0.627 0.311-0.804 0.617s-0.224 0.663-0.132 1.005c0.091 0.342 0.311 0.627 0.617 0.804 0.204 0.118 0.43 0.178 0.66 0.178 0.115 0 0.231-0.015 0.345-0.046l0.006-0.002 0.128 1.099c0.064 0.551 0.53 0.966 1.084 0.966h3.807c0.554 0 1.020-0.415 1.084-0.966l0.328-2.822 0.491-0.132c0.705-0.189 1.125-0.917 0.936-1.622-0.143-0.534-0.594-0.904-1.111-0.97l0.192-1.648 0.525-0.141c0.705-0.189 1.125-0.917 0.936-1.622-0.146-0.545-0.613-0.919-1.143-0.974l0.19-1.635 0.378-0.101c0.706-0.189 1.125-0.917 0.937-1.622-0.133-0.496-0.533-0.851-1.004-0.952l0.068-0.584h2.042c0.501 0 0.93-0.358 1.020-0.851l0.291-1.6h0.469c0.472 0 0.885-0.32 1.004-0.778 0.041-0.159 0.935-3.193 1.526-5.193 0.447-1.513 0.295-3.114-0.429-4.508zM18.062 30.926c-0.009 0.078-0.075 0.136-0.153 0.136h-3.807c-0.078 0-0.144-0.059-0.153-0.136l-0.144-1.236 4.542-1.217-0.285 2.453zM19.843 26.701c0.055 0.206-0.067 0.418-0.273 0.474l-6.929 1.856c-0.1 0.027-0.204 0.013-0.293-0.039s-0.154-0.135-0.18-0.235c-0.027-0.1-0.013-0.204 0.039-0.293s0.135-0.154 0.235-0.18l6.929-1.856c0.033-0.009 0.067-0.013 0.1-0.013 0.171-0 0.327 0.114 0.374 0.287zM18.675 25.643l-5.18 1.388-0.168-1.449 5.527-1.481-0.179 1.542zM20.385 22.32c0.055 0.206-0.068 0.419-0.274 0.474l-8.012 2.147c-0.206 0.055-0.419-0.067-0.474-0.273s0.068-0.418 0.274-0.474l8.012-2.147c0.033-0.009 0.067-0.013 0.1-0.013 0.171 0 0.328 0.114 0.374 0.287zM20.746 17.987c0.055 0.206-0.068 0.419-0.274 0.474l-2.864 0.768c-0.25 0.067-0.398 0.324-0.331 0.574s0.324 0.398 0.574 0.332l1.512-0.405-0.179 1.542-6.165 1.652-0.168-1.449 3.027-0.811c0.25-0.067 0.398-0.324 0.332-0.574s-0.324-0.398-0.574-0.332l-3.896 1.044c-0.206 0.055-0.418-0.068-0.474-0.274-0.027-0.1-0.013-0.204 0.039-0.293s0.135-0.154 0.235-0.18l8.734-2.34c0.206-0.055 0.419 0.068 0.474 0.273zM19.691 16.898l-7.15 1.916-0.303-2.606h7.533l-0.080 0.69z"></path>
<path fill="#fff" style="fill: var(--color1, #fff)" d="M19.562 2.739c-2.327 0.674-4.788 0.674-7.115 0-0.249-0.072-0.509 0.071-0.581 0.32s0.071 0.509 0.32 0.581c1.249 0.362 2.533 0.543 3.818 0.543s2.569-0.181 3.818-0.543c0.249-0.072 0.392-0.332 0.32-0.581s-0.332-0.392-0.581-0.32z"></path>
</symbol>
<symbol id="icon-smile" viewBox="0 0 32 32">
<path fill="none" stroke="#fff" style="stroke: var(--color1, #fff)" stroke-linejoin="round" stroke-linecap="round" stroke-miterlimit="10" stroke-width="1" d="M4.046 12.786c1.466 2.798 3.704 4.536 5.85 5.613 3.43 1.722 7.122 1.939 10.61 0.654l0.063-0.023"></path>
<path fill="none" stroke="#fff" style="stroke: var(--color1, #fff)" stroke-linejoin="round" stroke-linecap="round" stroke-miterlimit="10" stroke-width="1" d="M22.539 18.121c1.974-1.091 3.972-2.763 5.318-5.324"></path>
<path fill="none" stroke="#fff" style="stroke: var(--color1, #fff)" stroke-linejoin="round" stroke-linecap="round" stroke-miterlimit="10" stroke-width="1" d="M0.462 12.344c0.536 0.644 1.075 1.283 1.616 1.92 2.714 3.2 5.353 6.347 8.89 8.255 3.397 1.832 6.659 1.837 10.065-0 3.536-1.908 6.176-5.055 8.889-8.255 0.541-0.638 1.080-1.277 1.616-1.92"></path>
<path fill="none" stroke="#fff" style="stroke: var(--color1, #fff)" stroke-linejoin="round" stroke-linecap="round" stroke-miterlimit="10" stroke-width="1" d="M12.945 13.423v2.079c0 0.33 0.267 0.597 0.597 0.597h1.848c0.33 0 0.597-0.267 0.597-0.597v-2.018"></path>
<path fill="none" stroke="#fff" style="stroke: var(--color1, #fff)" stroke-linejoin="round" stroke-linecap="round" stroke-miterlimit="10" stroke-width="1" d="M15.992 13.484v2.018c0 0.33 0.267 0.597 0.597 0.597h1.848c0.33 0 0.597-0.267 0.597-0.597v-2.079"></path>
<path fill="none" stroke="#fff" style="stroke: var(--color1, #fff)" stroke-linejoin="round" stroke-linecap="round" stroke-miterlimit="10" stroke-width="1" d="M19.055 13.423v2.161c0 0.284 0.23 0.515 0.515 0.515h1.593c0.284 0 0.515-0.23 0.515-0.515v-2.282"></path>
<path fill="none" stroke="#fff" style="stroke: var(--color1, #fff)" stroke-linejoin="round" stroke-linecap="round" stroke-miterlimit="10" stroke-width="1" d="M21.677 13.303v1.407c0 0.269 0.218 0.487 0.487 0.487h1.507c0.269 0 0.487-0.218 0.487-0.487v-1.574"></path>
<path fill="none" stroke="#fff" style="stroke: var(--color1, #fff)" stroke-linejoin="round" stroke-linecap="round" stroke-miterlimit="10" stroke-width="1" d="M12.945 13.423v2.161c0 0.284-0.23 0.515-0.515 0.515h-1.593c-0.284 0-0.515-0.23-0.515-0.515v-2.282"></path>
<path fill="none" stroke="#fff" style="stroke: var(--color1, #fff)" stroke-linejoin="round" stroke-linecap="round" stroke-miterlimit="10" stroke-width="1" d="M10.323 13.303v1.407c0 0.269-0.218 0.487-0.487 0.487h-1.507c-0.269 0-0.487-0.218-0.487-0.487v-1.574"></path>
<path fill="none" stroke="#fff" style="stroke: var(--color1, #fff)" stroke-linejoin="round" stroke-linecap="round" stroke-miterlimit="10" stroke-width="1" d="M10.295 7.422c1.945-0.71 3.932-0.838 5.705 0.705 3.463-3.014 7.74 0.347 10.929 1.969 1.523 0.775 3.073 1.491 4.603 2.252 0 0-7.372 1.099-15.525 1.137v0c-0.002 0-0.004-0-0.006-0s-0.004 0-0.007 0v-0c-8.153-0.038-15.525-1.137-15.525-1.137 1.53-0.76 3.079-1.476 4.603-2.252 0.974-0.496 2.049-1.153 3.172-1.742l0.095-0.050"></path>
<path fill="none" stroke="#fff" style="stroke: var(--color1, #fff)" stroke-linejoin="round" stroke-linecap="round" stroke-miterlimit="10" stroke-width="1" d="M26.24 22.696c-0.203 0.43-0.79 1.48-1.825 1.837-0.080 0.028-0.080 0.142 0 0.169 1.035 0.357 1.622 1.407 1.825 1.837 0.032 0.069 0.13 0.069 0.163 0 0.203-0.43 0.79-1.48 1.825-1.837 0.080-0.028 0.080-0.142 0-0.169-1.035-0.357-1.622-1.407-1.825-1.837-0.032-0.069-0.13-0.069-0.163 0z"></path>
<path fill="none" stroke="#fff" style="stroke: var(--color1, #fff)" stroke-linejoin="round" stroke-linecap="round" stroke-miterlimit="10" stroke-width="1" d="M6.308 1.178c-0.279 0.592-1.088 2.038-2.513 2.53-0.111 0.038-0.111 0.195 0 0.233 1.425 0.492 2.234 1.938 2.513 2.53 0.045 0.095 0.18 0.095 0.224 0 0.279-0.592 1.088-2.038 2.513-2.53 0.11-0.038 0.11-0.195 0-0.233-1.425-0.492-2.234-1.938-2.513-2.53-0.045-0.095-0.18-0.095-0.224 0z"></path>
<path fill="none" stroke="#fff" style="stroke: var(--color1, #fff)" stroke-linejoin="round" stroke-linecap="round" stroke-miterlimit="10" stroke-width="1" d="M21.627 25.527c-0.279 0.592-1.088 2.038-2.513 2.53-0.111 0.038-0.111 0.195 0 0.233 1.425 0.492 2.234 1.938 2.513 2.53 0.045 0.095 0.18 0.095 0.224 0 0.279-0.592 1.088-2.038 2.513-2.53 0.11-0.038 0.11-0.195 0-0.233-1.425-0.492-2.234-1.938-2.513-2.53-0.045-0.095-0.18-0.095-0.224 0z"></path>
</symbol>
</defs>
</svg>
