<!-- Generated by IcoMoon.io -->
<svg version="1.1" xmlns="http://www.w3.org/2000/svg" width="32" height="32" viewBox="0 0 32 32">
<symbol id="teeth">
<path fill="#fff" stroke="#25b4f8" stroke-linejoin="miter" stroke-linecap="butt" stroke-miterlimit="4" stroke-width="0.4667" d="M27.532 2.834c-0.77-0.688-1.649-1.248-2.607-1.635-0.981-0.397-2.030-0.608-3.086-0.658-0.188-0.009-0.377-0.013-0.565-0.013-0.985 0.002-1.997 0.258-2.928 0.741-1.468 0.761-3.219 0.761-4.687 0-0.93-0.482-1.943-0.739-2.928-0.741-1.060 0-2.12 0.145-3.129 0.48-0.98 0.325-1.897 0.826-2.705 1.469-0.144 0.115-0.285 0.234-0.423 0.357-2.041 1.829-3.13 4.562-2.988 7.5 0.137 2.66 1.015 6.215 4.336 8.321-0.019 0.739-0.034 1.5 0.018 2.27 0.035 0.468 0.076 0.998 0.159 1.525 0.45 2.911 1.338 6.166 4.511 8.231 0.761 0.496 1.993 1.214 2.825 0.433 0.581-0.546 0.727-1.529 0.768-2.287 0.001-0.035 0.194-3.295 1.922-6.517 0.698 1.151 1.79 3.441 2.176 6.95 0.109 0.985 0.533 2.214 1.727 2.214 0.622 0 1.185-0.344 1.409-0.481 1.879-1.146 3.19-2.705 4.008-4.765 0.976-2.449 1.072-4.831 0.88-7.596 3.301-2.118 4.163-5.656 4.287-8.303 0.149-2.938-0.938-5.669-2.981-7.494zM19.829 15.701c-0.852-0.599-2.038-1.267-3.4-1.765-0.298-0.109-0.564-0.185-0.857 0-1.358 0.496-2.542 1.162-3.393 1.76-0.148-1.953-0.72-3.923-1.251-5.353l3.548 0.921c1.101 0.286 2.264 0.279 3.361-0.020l3.224-0.907c-0.519 1.446-1.086 3.415-1.232 5.364zM16.529 20.423c-0.157-0.174-0.383-0.264-0.617-0.246-0.233 0.019-0.444 0.145-0.57 0.341-2.477 3.836-2.726 8.051-2.735 8.228-0 0.005-0.001 0.010-0.001 0.016-1.961-4.709-0.742-10.074-0.483-11.083 0.285-0.343 1.824-1.534 3.878-2.302 2.085 0.78 3.64 1.996 3.891 2.318 0.297 0.98 1.793 6.452-0.223 11.212-0.671-5.679-3.038-8.372-3.14-8.484zM11.22 29.346c-2.588-1.751-3.345-4.58-3.739-7.129-0.074-0.469-0.112-0.968-0.145-1.402-0.051-0.748-0.031-1.492-0.011-2.282 0.011-0.447-0.039-0.749-0.45-0.988-2.994-1.74-3.771-4.922-3.892-7.288-0.119-2.483 0.788-4.783 2.491-6.309 1.026-0.92 2.286-1.534 3.641-1.783 1.316-0.242 2.647-0.192 3.853 0.433 1.899 0.985 4.168 0.986 6.068 0 0.719-0.373 1.494-0.571 2.241-0.573 1.051 0 2.1 0.169 3.077 0.562 0.799 0.321 1.536 0.787 2.177 1.362 1.703 1.522 2.609 3.819 2.484 6.303-0.111 2.382-0.884 5.584-3.932 7.327-0.225 0.128-0.406 0.441-0.381 0.715 0.218 2.755 0.174 5.063-0.749 7.377-0.609 1.534-1.539 2.739-2.833 3.667 1.469-3.581 1.369-7.75 0.387-11.449-0.606-2.282 0.188-4.877 0.965-7.046 0.186-0.52 0.069-1.095-0.307-1.502-0.379-0.409-0.949-0.573-1.485-0.427l-3.239 0.882c-0.845 0.23-1.74 0.235-2.589 0.015l-3.548-0.921c-0.536-0.139-1.101 0.029-1.474 0.438-0.371 0.406-0.486 0.979-0.301 1.496 0.741 2.064 1.541 4.375 1.105 6.593-0.292 1.487-0.561 2.945-0.622 4.466-0.049 1.212 0.001 2.43 0.172 3.631 0.139 0.972 0.361 1.943 0.675 2.874 0 0 0.222 0.786 0.361 0.958z"></path>
</symbol>
</svg>
